<mxfile host="app.diagrams.net" modified="2021-10-03T21:22:10.854Z" agent="5.0 (Windows)" etag="CEHi5ddcYpjhu-7Y9pr8" version="15.4.1" type="github">
  <diagram id="C5RBs43oDa-KdzZeNtuy" name="Page-1">
    <mxGraphModel dx="1422" dy="790" grid="1" gridSize="10" guides="1" tooltips="1" connect="1" arrows="1" fold="1" page="1" pageScale="1" pageWidth="827" pageHeight="1169" math="0" shadow="0">
      <root>
        <mxCell id="WIyWlLk6GJQsqaUBKTNV-0" />
        <mxCell id="WIyWlLk6GJQsqaUBKTNV-1" parent="WIyWlLk6GJQsqaUBKTNV-0" />
        <mxCell id="WIyWlLk6GJQsqaUBKTNV-2" value="" style="rounded=0;html=1;jettySize=auto;orthogonalLoop=1;fontSize=11;endArrow=block;endFill=0;endSize=8;strokeWidth=1;shadow=0;labelBackgroundColor=none;edgeStyle=orthogonalEdgeStyle;" parent="WIyWlLk6GJQsqaUBKTNV-1" source="WIyWlLk6GJQsqaUBKTNV-3" target="WIyWlLk6GJQsqaUBKTNV-6" edge="1">
          <mxGeometry relative="1" as="geometry" />
        </mxCell>
        <mxCell id="WIyWlLk6GJQsqaUBKTNV-3" value="User Account" style="rounded=1;whiteSpace=wrap;html=1;fontSize=12;glass=0;strokeWidth=1;shadow=0;" parent="WIyWlLk6GJQsqaUBKTNV-1" vertex="1">
          <mxGeometry x="350" y="80" width="120" height="40" as="geometry" />
        </mxCell>
        <mxCell id="WIyWlLk6GJQsqaUBKTNV-4" value="Yes" style="rounded=0;html=1;jettySize=auto;orthogonalLoop=1;fontSize=11;endArrow=block;endFill=0;endSize=8;strokeWidth=1;shadow=0;labelBackgroundColor=none;edgeStyle=orthogonalEdgeStyle;" parent="WIyWlLk6GJQsqaUBKTNV-1" source="WIyWlLk6GJQsqaUBKTNV-6" target="WIyWlLk6GJQsqaUBKTNV-10" edge="1">
          <mxGeometry y="20" relative="1" as="geometry">
            <mxPoint as="offset" />
          </mxGeometry>
        </mxCell>
        <mxCell id="WIyWlLk6GJQsqaUBKTNV-5" value="No" style="edgeStyle=orthogonalEdgeStyle;rounded=0;html=1;jettySize=auto;orthogonalLoop=1;fontSize=11;endArrow=block;endFill=0;endSize=8;strokeWidth=1;shadow=0;labelBackgroundColor=none;" parent="WIyWlLk6GJQsqaUBKTNV-1" source="WIyWlLk6GJQsqaUBKTNV-6" edge="1">
          <mxGeometry y="10" relative="1" as="geometry">
            <mxPoint as="offset" />
            <mxPoint x="320" y="310" as="targetPoint" />
          </mxGeometry>
        </mxCell>
        <mxCell id="WIyWlLk6GJQsqaUBKTNV-6" value="Is amount exactly 1 XLM?" style="rhombus;whiteSpace=wrap;html=1;shadow=0;fontFamily=Helvetica;fontSize=12;align=center;strokeWidth=1;spacing=6;spacingTop=-4;" parent="WIyWlLk6GJQsqaUBKTNV-1" vertex="1">
          <mxGeometry x="170" y="270" width="100" height="80" as="geometry" />
        </mxCell>
        <mxCell id="WIyWlLk6GJQsqaUBKTNV-8" value="No" style="rounded=0;html=1;jettySize=auto;orthogonalLoop=1;fontSize=11;endArrow=block;endFill=0;endSize=8;strokeWidth=1;shadow=0;labelBackgroundColor=none;edgeStyle=orthogonalEdgeStyle;fontFamily=Helvetica;exitX=1;exitY=0.5;exitDx=0;exitDy=0;entryX=0;entryY=0.5;entryDx=0;entryDy=0;" parent="WIyWlLk6GJQsqaUBKTNV-1" source="WIyWlLk6GJQsqaUBKTNV-10" target="WTKyLhwC0IkdDcOVvfLt-5" edge="1">
          <mxGeometry x="0.3333" y="20" relative="1" as="geometry">
            <mxPoint as="offset" />
            <mxPoint x="330" y="690" as="sourcePoint" />
            <mxPoint x="340" y="635" as="targetPoint" />
            <Array as="points" />
          </mxGeometry>
        </mxCell>
        <mxCell id="WIyWlLk6GJQsqaUBKTNV-9" value="Yes" style="edgeStyle=orthogonalEdgeStyle;rounded=0;html=1;jettySize=auto;orthogonalLoop=1;fontSize=11;endArrow=block;endFill=0;endSize=8;strokeWidth=1;shadow=0;labelBackgroundColor=none;exitX=0.5;exitY=1;exitDx=0;exitDy=0;" parent="WIyWlLk6GJQsqaUBKTNV-1" source="WIyWlLk6GJQsqaUBKTNV-10" target="WTKyLhwC0IkdDcOVvfLt-13" edge="1">
          <mxGeometry x="-0.7255" y="20" relative="1" as="geometry">
            <mxPoint as="offset" />
            <mxPoint x="400" y="700" as="targetPoint" />
          </mxGeometry>
        </mxCell>
        <mxCell id="WIyWlLk6GJQsqaUBKTNV-10" value="Does tx have e2e encrypted phone number in memo?" style="rhombus;whiteSpace=wrap;html=1;shadow=0;fontFamily=Helvetica;fontSize=12;align=center;strokeWidth=1;spacing=6;spacingTop=-4;" parent="WIyWlLk6GJQsqaUBKTNV-1" vertex="1">
          <mxGeometry x="165" y="585" width="110" height="100" as="geometry" />
        </mxCell>
        <mxCell id="WTKyLhwC0IkdDcOVvfLt-0" value="&lt;div&gt;Fairer No Loss Lottery&lt;/div&gt;&lt;div&gt;(SCF Proposal)&lt;br&gt;&lt;/div&gt;" style="rounded=1;whiteSpace=wrap;html=1;" vertex="1" parent="WIyWlLk6GJQsqaUBKTNV-1">
          <mxGeometry x="354" width="120" height="60" as="geometry" />
        </mxCell>
        <mxCell id="WTKyLhwC0IkdDcOVvfLt-1" value="&lt;div&gt;Send XLM to&lt;/div&gt;&lt;div&gt;escrow Turret account that is completely controlled/signed by the turret network&lt;br&gt;&lt;/div&gt;" style="shape=tape;whiteSpace=wrap;html=1;" vertex="1" parent="WIyWlLk6GJQsqaUBKTNV-1">
          <mxGeometry x="94" y="120" width="260" height="120" as="geometry" />
        </mxCell>
        <mxCell id="WTKyLhwC0IkdDcOVvfLt-5" value="Has address sent multiple invalid amounts/requests?" style="rhombus;whiteSpace=wrap;html=1;" vertex="1" parent="WIyWlLk6GJQsqaUBKTNV-1">
          <mxGeometry x="320" y="235" width="140" height="150" as="geometry" />
        </mxCell>
        <mxCell id="WTKyLhwC0IkdDcOVvfLt-6" value="Yes" style="rounded=0;html=1;jettySize=auto;orthogonalLoop=1;fontSize=11;endArrow=block;endFill=0;endSize=8;strokeWidth=1;shadow=0;labelBackgroundColor=none;edgeStyle=orthogonalEdgeStyle;exitX=0.5;exitY=1;exitDx=0;exitDy=0;" edge="1" parent="WIyWlLk6GJQsqaUBKTNV-1" source="WTKyLhwC0IkdDcOVvfLt-5">
          <mxGeometry y="20" relative="1" as="geometry">
            <mxPoint as="offset" />
            <mxPoint x="400" y="385" as="sourcePoint" />
            <mxPoint x="390" y="450" as="targetPoint" />
            <Array as="points">
              <mxPoint x="390" y="440" />
            </Array>
          </mxGeometry>
        </mxCell>
        <mxCell id="WTKyLhwC0IkdDcOVvfLt-7" value="No" style="edgeStyle=orthogonalEdgeStyle;rounded=0;html=1;jettySize=auto;orthogonalLoop=1;fontSize=11;endArrow=block;endFill=0;endSize=8;strokeWidth=1;shadow=0;labelBackgroundColor=none;" edge="1" parent="WIyWlLk6GJQsqaUBKTNV-1">
          <mxGeometry y="10" relative="1" as="geometry">
            <mxPoint as="offset" />
            <mxPoint x="460" y="309.5" as="sourcePoint" />
            <mxPoint x="510" y="309.5" as="targetPoint" />
          </mxGeometry>
        </mxCell>
        <mxCell id="WTKyLhwC0IkdDcOVvfLt-8" value="Don&#39;t return funds; Possible attempt to drain account from being able to pay tx fees" style="rounded=1;whiteSpace=wrap;html=1;" vertex="1" parent="WIyWlLk6GJQsqaUBKTNV-1">
          <mxGeometry x="340" y="450" width="140" height="80" as="geometry" />
        </mxCell>
        <mxCell id="WTKyLhwC0IkdDcOVvfLt-9" value="Return Funds" style="rounded=1;whiteSpace=wrap;html=1;" vertex="1" parent="WIyWlLk6GJQsqaUBKTNV-1">
          <mxGeometry x="510" y="285" width="100" height="50" as="geometry" />
        </mxCell>
        <mxCell id="WTKyLhwC0IkdDcOVvfLt-13" value="Are the SMS verification number,&amp;nbsp; captcha validation token and XLM amount correct?" style="rhombus;whiteSpace=wrap;html=1;fontFamily=Helvetica;" vertex="1" parent="WIyWlLk6GJQsqaUBKTNV-1">
          <mxGeometry x="140" y="950" width="140" height="160" as="geometry" />
        </mxCell>
        <mxCell id="WTKyLhwC0IkdDcOVvfLt-15" value="&lt;div&gt;Present user a delegated captcha. User solves captcha and sends 1 XLM&lt;/div&gt;&lt;div&gt;with the validation token and the 6 digit sms number sent to them by the keybase SMS bot in the memo&lt;br&gt;&lt;/div&gt;" style="shape=tape;whiteSpace=wrap;html=1;fontFamily=Helvetica;" vertex="1" parent="WIyWlLk6GJQsqaUBKTNV-1">
          <mxGeometry x="125" y="730" width="215" height="180" as="geometry" />
        </mxCell>
        <mxCell id="WTKyLhwC0IkdDcOVvfLt-16" value="Yes" style="edgeStyle=orthogonalEdgeStyle;rounded=0;html=1;jettySize=auto;orthogonalLoop=1;fontSize=11;endArrow=block;endFill=0;endSize=8;strokeWidth=1;shadow=0;labelBackgroundColor=none;exitX=0.5;exitY=1;exitDx=0;exitDy=0;" edge="1" parent="WIyWlLk6GJQsqaUBKTNV-1" source="WTKyLhwC0IkdDcOVvfLt-13">
          <mxGeometry x="-0.2308" y="20" relative="1" as="geometry">
            <mxPoint as="offset" />
            <mxPoint x="460" y="1030" as="sourcePoint" />
            <mxPoint x="210" y="1240" as="targetPoint" />
          </mxGeometry>
        </mxCell>
        <mxCell id="WTKyLhwC0IkdDcOVvfLt-17" value="&lt;div&gt;Deposit funds into liquidity pool. At the end of every week use the last two operation numbers of the week to randomly select a winner. 50% of the rewards for the week are paid out and the other 50% stay in the liquidity pool &lt;br&gt;&lt;/div&gt;" style="ellipse;whiteSpace=wrap;html=1;aspect=fixed;fontFamily=Helvetica;" vertex="1" parent="WIyWlLk6GJQsqaUBKTNV-1">
          <mxGeometry x="105" y="1754" width="220" height="220" as="geometry" />
        </mxCell>
        <mxCell id="WTKyLhwC0IkdDcOVvfLt-21" style="edgeStyle=orthogonalEdgeStyle;rounded=0;orthogonalLoop=1;jettySize=auto;html=1;exitX=0.5;exitY=1;exitDx=0;exitDy=0;shadow=0;fontFamily=Helvetica;" edge="1" parent="WIyWlLk6GJQsqaUBKTNV-1" source="WTKyLhwC0IkdDcOVvfLt-18" target="WTKyLhwC0IkdDcOVvfLt-17">
          <mxGeometry relative="1" as="geometry">
            <mxPoint x="215" y="1700" as="targetPoint" />
          </mxGeometry>
        </mxCell>
        <mxCell id="WTKyLhwC0IkdDcOVvfLt-18" value="&lt;div&gt;Store hashed and salted phone number to prevent that phone number from being used multiple times. The salt would have to be private but I am not sure if there is a way to have a private salt value?&lt;/div&gt;&lt;div&gt;The salt part wouldn&#39;t be trustless either.&lt;br&gt;&lt;/div&gt;" style="ellipse;whiteSpace=wrap;html=1;aspect=fixed;fontFamily=Helvetica;" vertex="1" parent="WIyWlLk6GJQsqaUBKTNV-1">
          <mxGeometry x="105" y="1480" width="220" height="220" as="geometry" />
        </mxCell>
        <mxCell id="WTKyLhwC0IkdDcOVvfLt-19" value="No" style="rounded=0;html=1;jettySize=auto;orthogonalLoop=1;fontSize=11;endArrow=block;endFill=0;endSize=8;strokeWidth=1;shadow=0;labelBackgroundColor=none;edgeStyle=orthogonalEdgeStyle;fontFamily=Helvetica;exitX=1;exitY=0.5;exitDx=0;exitDy=0;" edge="1" parent="WIyWlLk6GJQsqaUBKTNV-1" source="WTKyLhwC0IkdDcOVvfLt-13">
          <mxGeometry x="0.3333" y="20" relative="1" as="geometry">
            <mxPoint as="offset" />
            <mxPoint x="280" y="1025" as="sourcePoint" />
            <mxPoint x="300" y="630" as="targetPoint" />
            <Array as="points">
              <mxPoint x="410" y="1030" />
              <mxPoint x="410" y="630" />
            </Array>
          </mxGeometry>
        </mxCell>
        <mxCell id="WTKyLhwC0IkdDcOVvfLt-22" value="Has account already deposited funds? (Might need to make sure account is non-muxed also)" style="rhombus;whiteSpace=wrap;html=1;fontFamily=Helvetica;" vertex="1" parent="WIyWlLk6GJQsqaUBKTNV-1">
          <mxGeometry x="120" y="1240" width="180" height="150" as="geometry" />
        </mxCell>
        <mxCell id="WTKyLhwC0IkdDcOVvfLt-23" value="Yes" style="edgeStyle=orthogonalEdgeStyle;rounded=0;html=1;jettySize=auto;orthogonalLoop=1;fontSize=11;endArrow=block;endFill=0;endSize=8;strokeWidth=1;shadow=0;labelBackgroundColor=none;exitX=1;exitY=0.5;exitDx=0;exitDy=0;" edge="1" parent="WIyWlLk6GJQsqaUBKTNV-1" source="WTKyLhwC0IkdDcOVvfLt-22">
          <mxGeometry x="-0.2308" y="20" relative="1" as="geometry">
            <mxPoint as="offset" />
            <mxPoint x="220" y="1120" as="sourcePoint" />
            <mxPoint x="410" y="1030" as="targetPoint" />
          </mxGeometry>
        </mxCell>
        <mxCell id="WTKyLhwC0IkdDcOVvfLt-24" value="No" style="edgeStyle=orthogonalEdgeStyle;rounded=0;html=1;jettySize=auto;orthogonalLoop=1;fontSize=11;endArrow=block;endFill=0;endSize=8;strokeWidth=1;shadow=0;labelBackgroundColor=none;entryX=0.463;entryY=0;entryDx=0;entryDy=0;entryPerimeter=0;" edge="1" parent="WIyWlLk6GJQsqaUBKTNV-1" target="WTKyLhwC0IkdDcOVvfLt-18">
          <mxGeometry y="10" relative="1" as="geometry">
            <mxPoint as="offset" />
            <mxPoint x="208" y="1390" as="sourcePoint" />
            <mxPoint x="660" y="470" as="targetPoint" />
          </mxGeometry>
        </mxCell>
      </root>
    </mxGraphModel>
  </diagram>
</mxfile>
